<?xml version="1.0" encoding="UTF-8" standalone="no"?>
<svg
   width="440.918"
   height="800.01898"
   viewBox="0 0 440.918 800.019"
   role="img"
   artist="Katerina Limpitsouni"
   source="https://undraw.co/"
   version="1.1"
   id="svg22"
   xmlns="http://www.w3.org/2000/svg"
   xmlns:svg="http://www.w3.org/2000/svg">
  <defs
     id="defs22" />
  <g
     transform="translate(-740,-140)"
     id="g22">
    <path
       d="m 986.137,474.778 15.581,42.678 c 0,0 -16.258,48.775 0,50.13 16.258,1.355 18.291,-46.743 18.291,-46.743 l -8.807,-51.485 z"
       transform="translate(160.909,84.143)"
       fill="#ed9da0"
       id="path1" />
    <path
       d="m 994.675,359.128 11.516,11.516 v 54.872 c 0,0 2.71,34.549 5.419,42 2.709,7.451 7.452,9.484 6.1,12.194 -1.352,2.71 -1.355,9.484 -1.355,9.484 l -29.129,4.065 -6.1,-76.549 z"
       transform="translate(159.823,60.242)"
       fill="#d6d6e3"
       id="path2" />
    <path
       d="m 915.225,352.464 -33.872,1.354 1.355,14.226 29.807,-5.42 z"
       transform="translate(262.306,196.297)"
       fill="#3f3d56"
       id="path3" />
    <path
       d="m 833.365,187.953 -4.065,40.647 41.323,6.1 3.048,-23.372 3.049,-23.372 z"
       transform="translate(251.02,160.627)"
       fill="#ed9da0"
       id="path4" />
    <path
       d="m 860.875,459.894 23.033,49.452 c 0,0 4.065,23.033 10.161,23.71 6.096,0.677 12.194,-23.71 12.194,-23.71 l -8.129,-12.871 -9.484,-36.581 z"
       transform="translate(133.749,82.092)"
       fill="#ed9da0"
       id="path5" />
    <path
       d="m 904.81,499.655 -18.968,29.807 c 0,0 -7.91,275.714 -5.2,273.681 2.71,-2.033 1.135,5.419 4.522,0 3.387,-5.419 24.387,0 24.387,0 l 12.194,-12.871 v -10.161 c 0,-2.032 24.387,-157.163 24.387,-157.163 v 39.291 c 0,0 -7.452,144.292 4.742,142.937 12.194,-1.355 33.986,-2.032 33.986,-2.032 0,0 39.176,-277.068 28.337,-287.23 -10.839,-10.162 -15.581,-33.194 -15.581,-33.194 z"
       transform="translate(137.912,87.041)"
       fill="#2f2e41"
       id="path6" />
    <circle
       cx="32.516998"
       cy="32.516998"
       r="32.516998"
       transform="translate(1074.562,296.756)"
       fill="#ed9da0"
       id="circle6" />
    <path
       d="m 902.108,340.126 -4.742,-2.71 c 0,0 -21,14.226 -27.775,46.065 -6.775,31.839 -8.807,50.13 -12.871,52.839 -4.064,2.709 0.438,41.422 1.355,44.033 H 893.3 c 0,0 -6.774,-12.871 -4.742,-15.581 2.032,-2.71 2.71,-5.419 1.355,-6.774 -1.355,-1.355 6.1,-23.71 7.452,-25.065 1.352,-1.355 15.581,-47.42 15.581,-48.775 0,-1.355 -10.838,-44.032 -10.838,-44.032 z"
       transform="translate(132.485,55.535)"
       fill="#d6d6e3"
       id="path7" />
    <path
       d="m 793.76,339.659 -42.679,2.71 10.839,10.162 29.807,0.678 z"
       transform="translate(234.06,193.52)"
       fill="#3f3d56"
       id="path8" />
    <path
       d="m 899.745,494.411 -8.807,16.258 c 0,0 26.42,3.387 35.9,6.774 9.48,3.387 33.871,8.129 33.871,8.129 l 6.1,-23.71 z"
       transform="translate(140.268,89.576)"
       fill="#3f3d56"
       id="path9" />
    <path
       d="m 859.641,388.382 7.452,22.356 29.807,-6.1 -3.388,-21 z"
       transform="translate(257.598,203.057)"
       fill="#3f3d56"
       id="path10" />
    <path
       d="m 989.407,323.643 c 0,0 -2.032,-1.355 -6.774,1.355 -4.742,2.71 -20.323,4.065 -27.775,-4.065 -7.452,-8.13 -12.871,-14.9 -14.9,-13.549 -2.029,1.351 -3.387,16.936 -3.387,16.936 l -6.774,5.419 -39.968,14.226 3.387,91.453 6.1,21 c 0,0 -4.742,16.258 1.355,25.742 6.097,9.484 -3.387,12.871 -3.387,12.871 0,0 -2.032,2.71 -0.677,9.484 1.355,6.774 -1.355,31.839 -1.355,31.839 0,0 57.581,25.742 117.873,3.387 l -6.782,-25.741 -3.387,-57.581 c 0,0 3.387,-9.484 2.71,-13.549 -0.677,-4.065 20.323,-60.969 20.323,-60.969 0,0 -3.387,-28.452 -21,-34.549 -17.613,-6.097 -20.323,-12.194 -20.323,-12.194 0,0 8.128,-8.806 4.741,-11.515 z"
       transform="translate(140.026,48.986)"
       fill="#d6d6e3"
       id="path11" />
    <path
       d="m 926.806,297.157 c 0,0 -3.377,-5.065 -2.078,-10.52 a 31.884,31.884 0 0 0 0.909,-9.481 93.825,93.825 0 0 1 5.455,-13.766 c 2.727,-4.935 1.428,-7.013 10,-8.572 8.572,-1.559 5.065,-12.727 27.663,-0.649 a 6.627,6.627 0 0 0 6.883,2.6 c 4.675,-0.909 6.364,5.585 6.364,5.585 0,0 3.117,-1.818 4.286,0.779 1.169,2.597 9.5,-1.559 9.5,15.974 0,17.533 -9.484,33.194 -9.484,33.194 0,0 0.7,-29.492 -14.76,-32.479 -15.46,-2.987 -32.078,-11.688 -36.1,-0.519 a 85.152,85.152 0 0 1 -8.638,17.854 z"
       transform="translate(147.529,36.281)"
       fill="#2f2e41"
       id="path12" />
    <path
       d="m 966.528,737.951 4.764,14.293 c 0,0 0,14.293 4.764,21.439 4.764,7.146 9.529,22.63 -9.528,23.821 -19.057,1.191 -27.394,-5.955 -27.394,-5.955 0,0 3.573,-9.529 0,-13.1 -3.573,-3.571 0,-10.72 0,-10.72 l 3.573,-28.585 z"
       transform="translate(150.373,142.381)"
       fill="#2f2e41"
       id="path13" />
    <path
       d="m 887.55,737.951 -4.764,14.293 c 0,0 0,14.293 -4.764,21.439 -4.764,7.146 -9.529,22.63 9.528,23.821 19.057,1.191 27.394,-5.955 27.394,-5.955 0,0 -3.573,-9.529 0,-13.1 3.573,-3.571 0,-10.72 0,-10.72 l -3.573,-28.585 z"
       transform="translate(136.543,142.381)"
       fill="#2f2e41"
       id="path14" />
    <g
       transform="translate(740,140)"
       id="g21">
      <circle
         cx="5.3280001"
         cy="5.3280001"
         transform="translate(3.594,136.744)"
         fill="#7f5af0"
         id="ellipse14"
         r="5.3280001" />
      <path
         d="m 629.983,373.234 a 374.623,374.623 0 0 1 -59.5,-31.213 C 525.2,312.893 494.33,279.2 493.658,258.187 c -0.2,-6.142 2.085,-11.014 6.782,-14.477 7.6,-5.6 21.141,-6.948 39.169,-3.891 l -0.445,2.627 c -17.3,-2.934 -30.142,-1.756 -37.142,3.408 a 13.816,13.816 0 0 0 -5.7,12.249 c 0.645,20.179 31.03,53 75.608,81.678 a 371.855,371.855 0 0 0 59.064,30.988 z"
         transform="translate(-493.646,-189.631)"
         fill="#fffffe"
         id="path15" />
      <path
         d="m 704.375,390.492 c -7.9,0 -17.256,-1.272 -27.894,-3.822 l 0.621,-2.59 c 22.337,5.354 39.24,4.908 47.6,-1.255 a 13.816,13.816 0 0 0 5.7,-12.249 c -0.645,-20.18 -31.03,-53 -75.608,-81.677 a 360.226,360.226 0 0 0 -69.4,-35 l 0.917,-2.5 a 362.92,362.92 0 0 1 69.919,35.262 c 45.282,29.127 76.158,62.817 76.829,83.833 0.2,6.142 -2.085,11.014 -6.782,14.477 -4.985,3.676 -12.388,5.521 -21.902,5.521 z"
         transform="translate(-503.926,-191.108)"
         fill="#fffffe"
         id="path16" />
      <path
         d="m 522.421,388.989 c -9.54,0 -17.012,-1.83 -21.982,-5.5 -4.7,-3.464 -6.978,-8.335 -6.782,-14.477 0.672,-21.016 31.547,-54.706 76.829,-83.833 50.609,-32.553 107.415,-51.846 135.074,-45.87 l -0.562,2.6 c -27.034,-5.843 -83,13.3 -133.07,45.507 -44.578,28.674 -74.963,61.5 -75.608,81.677 a 13.815,13.815 0 0 0 5.7,12.249 c 20,14.751 83.922,-3.9 142.49,-41.568 40.233,-25.879 68.82,-54.833 74.607,-75.564 l 2.566,0.716 c -5.955,21.333 -34.973,50.872 -75.731,77.089 -28.684,18.45 -59.526,32.949 -86.845,40.826 -14.19,4.099 -26.595,6.147 -36.686,6.148 z"
         transform="translate(-493.646,-189.632)"
         fill="#fffffe"
         id="path17" />
      <circle
         cx="7.9920001"
         cy="7.9920001"
         transform="translate(56.171,47.505)"
         fill="#7f5af0"
         id="ellipse17"
         r="7.9920001" />
      <circle
         cx="7.9920001"
         cy="7.9920001"
         transform="translate(145.41,181.142)"
         fill="#7f5af0"
         id="ellipse18"
         r="7.9920001" />
      <circle
         cx="5.3280001"
         cy="5.3280001"
         transform="translate(172.937,256.618)"
         fill="#2cb67d"
         id="ellipse19"
         r="5.3280001" />
      <circle
         cx="5.3280001"
         cy="5.3280001"
         transform="translate(41.52)"
         fill="#2cb67d"
         id="ellipse20"
         r="5.3280001" />
      <circle
         cx="7.9920001"
         cy="7.9920001"
         transform="translate(215.559,51.501)"
         fill="#7f5af0"
         id="ellipse21"
         r="7.9920001" />
    </g>
  </g>
</svg>
